<svg xmlns="http://www.w3.org/2000/svg" xmlns:xlink="http://www.w3.org/1999/xlink" viewBox="0 0 34.311 32">
    <defs>
        <symbol id="7c616645-d56b-44af-bb70-ef3dc2175ff3" viewBox="0 0 34.311 32">
            <path d="M23.129,11.992a.442.442,0,0,0-.056.006,2.368,2.368,0,0,0-2.334,2.356,2.328,2.328,0,0,0,.174.907,2.376,2.376,0,1,0,2.215-3.269" fill="#08a9ae"/><path
            d="M17.155,0A17.153,17.153,0,0,0,5.831,30.039a22.946,22.946,0,0,1,.63-2.378,11.713,11.713,0,0,1,7.971-7.992,5.055,5.055,0,0,0,.821,1.354,4.728,4.728,0,0,0,.926.8.627.627,0,0,1,.165.8A27.929,27.929,0,0,0,15.16,26a9.8,9.8,0,0,0-.649,3.066,3.2,3.2,0,0,0,.909,1.587c.525.6,1.257,1.347,1.735,1.347s1.211-.749,1.737-1.347a3.193,3.193,0,0,0,.908-1.587A9.752,9.752,0,0,0,19.15,26a27.511,27.511,0,0,0-1.185-3.383.626.626,0,0,1,.168-.8,4.705,4.705,0,0,0,.924-.8,5.036,5.036,0,0,0,.823-1.354,11.715,11.715,0,0,1,7.972,7.992,23.056,23.056,0,0,1,.629,2.378A17.153,17.153,0,0,0,17.155,0M23.09,18.72l-11.917-.082a4.349,4.349,0,0,1-.223-8.692s0-.008,0-.012l.274,0,5.132.035V7.19a1.976,1.976,0,1,1,1.6,0V9.98l5.183.036.274,0v.015a4.349,4.349,0,0,1-.324,8.688"
            fill="#08a9ae"/><path d="M11.266,11.916c-.018,0-.036,0-.055,0a2.515,2.515,0,1,0,.055,0" fill="#08a9ae"/>
        </symbol>
    </defs>
    <title>Dooglys</title>
    <g id="a447e1fb-7038-4eba-8948-428146b63fea">
        <g id="f8ff91a6-e068-47c9-83db-914f64843ab0">
            <g id="3a336ec4-9623-4d31-aa9c-648d6a1fecd9">
                <use id="212caee8-f5b7-4efa-b1f2-3e061a98d2ca" width="34.311" height="32" xlink:href="#7c616645-d56b-44af-bb70-ef3dc2175ff3"/>
            </g>
        </g>
    </g>
</svg>
